<svg width="33" height="33" viewBox="0 0 33 33" fill="none" xmlns="http://www.w3.org/2000/svg">
<circle cx="16.4595" cy="16.4595" r="15.9595" stroke="#D4D4D8"/>
<path d="M23.758 12.9127C23.2654 13.1317 22.7454 13.2685 22.198 13.3506C22.7454 13.0222 23.1833 12.5022 23.3748 11.8727C22.8548 12.1738 22.2801 12.3927 21.6506 12.5296C21.158 12.0096 20.4464 11.6812 19.6801 11.6812C18.2022 11.6812 16.998 12.8854 16.998 14.3633C16.998 14.5822 17.0253 14.7738 17.0801 14.9654C14.8632 14.8559 12.8653 13.7885 11.5243 12.1464C11.3053 12.5569 11.1685 12.9948 11.1685 13.4875C11.1685 14.418 11.6337 15.2391 12.3727 15.7317C11.9348 15.7043 11.5243 15.5949 11.1411 15.4033V15.4306C11.1411 16.7443 12.0716 17.8391 13.3032 18.0854C13.0843 18.1401 12.8379 18.1675 12.5916 18.1675C12.4274 18.1675 12.2358 18.1401 12.0716 18.1128C12.4274 19.1801 13.4127 19.9738 14.5895 19.9738C13.659 20.6854 12.5095 21.1233 11.2506 21.1233C11.0316 21.1233 10.8127 21.1233 10.6211 21.0959C11.8253 21.8623 13.2211 22.3002 14.7537 22.3002C19.7075 22.3002 22.4169 18.1949 22.4169 14.637C22.4169 14.5275 22.4169 14.3906 22.4169 14.2812C22.9369 13.9254 23.4022 13.4601 23.758 12.9127Z" fill="white"/>
</svg>
