<svg width="33" height="33" viewBox="0 0 33 33" fill="none" xmlns="http://www.w3.org/2000/svg">
<circle cx="16.5141" cy="16.4595" r="15.9595" stroke="#D4D4D8"/>
<path d="M16.515 9.93118C18.6415 9.93118 18.8933 9.93914 19.7334 9.97745C20.2384 9.98363 20.7387 10.0764 21.2124 10.2516C21.556 10.3841 21.868 10.5871 22.1283 10.8474C22.3887 11.1078 22.5916 11.4198 22.7241 11.7633C22.8994 12.2371 22.9921 12.7373 22.9983 13.2424C23.0362 14.0824 23.0446 14.3343 23.0446 16.4607C23.0446 18.5872 23.0366 18.839 22.9983 19.679C22.9921 20.1841 22.8994 20.6844 22.7241 21.1581C22.5916 21.5017 22.3887 21.8137 22.1283 22.074C21.868 22.3344 21.556 22.5373 21.2124 22.6698C20.7387 22.8451 20.2384 22.9378 19.7334 22.944C18.8937 22.9819 18.6419 22.9903 16.515 22.9903C14.3882 22.9903 14.1364 22.9823 13.2967 22.944C12.7916 22.9378 12.2914 22.8451 11.8176 22.6698C11.4741 22.5373 11.1621 22.3344 10.9018 22.074C10.6414 21.8137 10.4384 21.5017 10.306 21.1581C10.1307 20.6844 10.0379 20.1841 10.0318 19.679C9.99383 18.839 9.98548 18.5872 9.98548 16.4607C9.98548 14.3343 9.99345 14.0824 10.0318 13.2424C10.0379 12.7373 10.1307 12.2371 10.306 11.7633C10.4384 11.4198 10.6414 11.1078 10.9018 10.8474C11.1621 10.5871 11.4741 10.3841 11.8176 10.2516C12.2914 10.0764 12.7916 9.98363 13.2967 9.97745C14.1368 9.93952 14.3886 9.93118 16.515 9.93118ZM16.515 8.49609C14.3533 8.49609 14.081 8.5052 13.2315 8.54388C12.5705 8.55703 11.9165 8.68218 11.2973 8.91403C10.7662 9.11414 10.2851 9.42775 9.88764 9.83295C9.48207 10.2305 9.1682 10.7119 8.96796 11.2434C8.73611 11.8625 8.61096 12.5165 8.59781 13.1776C8.55988 14.0263 8.55078 14.2986 8.55078 16.4603C8.55078 18.6221 8.55988 18.8944 8.59857 19.7439C8.61171 20.4049 8.73687 21.0589 8.96872 21.6781C9.16873 22.2095 9.48234 22.6908 9.88764 23.0885C10.2853 23.4938 10.7667 23.8074 11.2981 24.0074C11.9172 24.2393 12.5712 24.3644 13.2322 24.3776C14.0818 24.4155 14.3529 24.4254 16.5158 24.4254C18.6787 24.4254 18.9498 24.4163 19.7993 24.3776C20.4604 24.3644 21.1144 24.2393 21.7335 24.0074C22.2624 23.8024 22.7427 23.4893 23.1437 23.0881C23.5446 22.6868 23.8575 22.2063 24.0621 21.6773C24.294 21.0582 24.4191 20.4042 24.4323 19.7431C24.4702 18.8944 24.4793 18.6221 24.4793 16.4603C24.4793 14.2986 24.4702 14.0263 24.4315 13.1768C24.4184 12.5158 24.2932 11.8618 24.0614 11.2426C23.8613 10.7112 23.5477 10.2299 23.1424 9.83219C22.7448 9.4269 22.2634 9.11329 21.732 8.91327C21.1128 8.68143 20.4588 8.55627 19.7978 8.54312C18.9491 8.5052 18.6768 8.49609 16.515 8.49609Z" fill="white"/>
<path d="M16.5176 12.3721C15.7087 12.3721 14.9179 12.6119 14.2454 13.0613C13.5728 13.5107 13.0486 14.1495 12.7391 14.8968C12.4295 15.6441 12.3485 16.4664 12.5063 17.2598C12.6641 18.0531 13.0536 18.7819 13.6256 19.3539C14.1976 19.9258 14.9263 20.3153 15.7197 20.4732C16.513 20.631 17.3354 20.55 18.0827 20.2404C18.83 19.9309 19.4687 19.4067 19.9181 18.7341C20.3675 18.0615 20.6074 17.2708 20.6074 16.4619C20.6074 15.3772 20.1765 14.3369 19.4095 13.57C18.6425 12.803 17.6023 12.3721 16.5176 12.3721ZM16.5176 19.1167C15.9925 19.1167 15.4792 18.961 15.0427 18.6692C14.6061 18.3775 14.2658 17.9629 14.0649 17.4778C13.864 16.9927 13.8114 16.459 13.9138 15.944C14.0163 15.429 14.2691 14.956 14.6404 14.5847C15.0117 14.2134 15.4847 13.9606 15.9997 13.8582C16.5146 13.7557 17.0484 13.8083 17.5335 14.0092C18.0186 14.2102 18.4332 14.5504 18.7249 14.987C19.0166 15.4236 19.1723 15.9368 19.1723 16.4619C19.1723 17.166 18.8926 17.8412 18.3948 18.3391C17.8969 18.837 17.2217 19.1167 16.5176 19.1167Z" fill="white"/>
<path d="M20.7663 13.1653C21.2941 13.1653 21.722 12.7374 21.722 12.2096C21.722 11.6818 21.2941 11.2539 20.7663 11.2539C20.2384 11.2539 19.8105 11.6818 19.8105 12.2096C19.8105 12.7374 20.2384 13.1653 20.7663 13.1653Z" fill="white"/>
</svg>
