<svg width="33" height="33" viewBox="0 0 33 33" fill="none" xmlns="http://www.w3.org/2000/svg">
<circle cx="16.5415" cy="16.4595" r="15.9595" stroke="#D4D4D8"/>
<path fill-rule="evenodd" clip-rule="evenodd" d="M17.255 8.49609C13.0332 8.49609 9.63672 11.8926 9.63672 16.1143C9.63672 19.4791 11.827 22.3359 14.8425 23.3517C15.2234 23.4152 15.3504 23.193 15.3504 22.9708C15.3504 22.7803 15.3504 22.3042 15.3504 21.6693C13.2236 22.1455 12.7792 20.6536 12.7792 20.6536C12.4301 19.7648 11.9222 19.5426 11.9222 19.5426C11.2239 19.0664 11.9857 19.0664 11.9857 19.0664C12.7475 19.1299 13.1602 19.86 13.1602 19.86C13.8268 21.0345 14.9378 20.6853 15.3822 20.4948C15.4456 19.987 15.6361 19.6695 15.8583 19.4791C14.1759 19.2886 12.3983 18.622 12.3983 15.7017C12.3983 14.8764 12.684 14.178 13.1919 13.6702C13.1284 13.4797 12.8427 12.7179 13.2554 11.6386C13.2554 11.6386 13.8902 11.4482 15.3504 12.4322C15.9535 12.2735 16.6201 12.1783 17.255 12.1783C17.8898 12.1783 18.5564 12.2735 19.1595 12.4322C20.6197 11.4482 21.2546 11.6386 21.2546 11.6386C21.6672 12.6861 21.4133 13.448 21.318 13.6702C21.7942 14.2098 22.1116 14.8764 22.1116 15.7017C22.1116 18.622 20.334 19.2569 18.6199 19.4473C18.9056 19.6695 19.1278 20.1457 19.1278 20.844C19.1278 21.8598 19.1278 22.6851 19.1278 22.939C19.1278 23.1295 19.2548 23.3834 19.6674 23.32C22.683 22.3359 24.8732 19.4791 24.8732 16.1143C24.8732 11.8926 21.4768 8.49609 17.255 8.49609Z" fill="white"/>
</svg>
