<svg width="20" height="22" viewBox="0 0 20 22" fill="none" xmlns="http://www.w3.org/2000/svg">
<path d="M14.8264 7.55447C14.4069 7.55447 14.0591 7.20663 14.0591 6.78718V5.37536C14.0591 4.30116 13.5987 3.25763 12.8007 2.53126C11.9925 1.79465 10.949 1.45704 9.84409 1.55935C8.00258 1.73327 6.38615 3.6157 6.38615 5.57997V6.57233C6.38615 6.99179 6.03831 7.33963 5.61886 7.33963C5.1994 7.33963 4.85156 6.99179 4.85156 6.57233V5.56974C4.85156 2.81771 7.0716 0.280528 9.70086 0.0247633C11.2354 -0.118465 12.7086 0.362372 13.834 1.39566C14.9491 2.40849 15.5937 3.86123 15.5937 5.37536V6.78718C15.5937 7.20663 15.2458 7.55447 14.8264 7.55447Z" fill="white"/>
<path d="M13.292 22H7.15369C2.42716 22 1.54733 19.8004 1.32226 17.6622L0.554963 11.5341C0.442427 10.4292 0.401505 8.84345 1.47572 7.6567C2.39647 6.63365 3.92082 6.14258 6.13063 6.14258H14.3151C16.5351 6.14258 18.0595 6.64388 18.97 7.6567C20.034 8.84345 20.0033 10.4292 19.8907 11.5136L19.1234 17.6622C18.8984 19.8004 18.0185 22 13.292 22ZM6.13063 7.67717C4.40166 7.67717 3.21491 8.01477 2.61131 8.68999C2.11001 9.24244 1.94632 10.0916 2.07932 11.3602L2.84661 17.4883C3.02053 19.1252 3.47068 20.4756 7.15369 20.4756H13.292C16.975 20.4756 17.4252 19.1354 17.5991 17.5088L18.3664 11.3602C18.4994 10.112 18.3357 9.26291 17.8344 8.70022C17.2308 8.01477 16.044 7.67717 14.3151 7.67717H6.13063Z" fill="white"/>
<path d="M13.7227 12.1786C13.1498 12.1786 12.6895 11.7182 12.6895 11.1555C12.6895 10.5928 13.1498 10.1324 13.7125 10.1324C14.2752 10.1324 14.7356 10.5928 14.7356 11.1555C14.7356 11.7182 14.2854 12.1786 13.7227 12.1786Z" fill="white"/>
<path d="M6.56063 12.1786C5.98772 12.1786 5.52734 11.7182 5.52734 11.1555C5.52734 10.5928 5.98772 10.1324 6.5504 10.1324C7.11308 10.1324 7.57346 10.5928 7.57346 11.1555C7.57346 11.7182 7.12331 12.1786 6.56063 12.1786Z" fill="white"/>
</svg>
