<svg width="48" height="48" viewBox="0 0 48 48" fill="none" xmlns="http://www.w3.org/2000/svg">
<g filter="url(#filter0_d_148_350)">
<path d="M42.7781 5.68806C41.9668 8.32499 40.4793 13.2608 38.6537 18.3994C39.127 18.5347 39.5327 18.6699 39.8707 18.8051C40.344 18.9403 40.6821 19.346 40.6821 19.8193C40.6821 20.0222 40.6145 20.1574 40.5469 20.3602C39.0594 23.2 34.9349 30.6375 30.8781 34.8295C30.8105 34.8972 30.7429 34.9648 30.6753 35.0324C28.3088 37.4665 24.9957 38.954 21.3446 38.954C14.1099 38.954 8.22756 33.004 8.22756 25.7693C8.22756 22.1182 9.64744 18.8051 12.0815 16.4386C12.1491 16.371 12.2168 16.3034 12.2844 16.2358C16.4764 12.179 23.9139 8.12215 26.7537 6.56704C26.9565 6.49942 27.0918 6.49942 27.2946 6.49942C27.7679 6.49942 28.1736 6.76988 28.3088 7.24317C28.444 7.58124 28.5793 8.05454 28.7145 8.52783C33.8531 6.70227 38.7889 5.14715 41.4259 4.33579C41.4935 4.33579 41.6287 4.33579 41.6963 4.33579C42.3048 4.33579 42.7781 4.80908 42.7781 5.41761C42.7781 5.48522 42.7781 5.62045 42.7781 5.68806ZM29.7963 25.9722C29.7963 21.1716 25.9423 17.3176 21.1418 17.3176C16.4088 17.3176 12.4872 21.1716 12.4872 25.9722C12.4872 30.7051 16.4088 34.5591 21.1418 34.5591C25.9423 34.5591 29.7963 30.7051 29.7963 25.9722ZM21.1418 23.8085C21.1418 24.9579 20.1952 25.9045 18.9781 25.9045C17.8287 25.9045 16.8145 24.9579 16.8145 23.7409C16.8145 22.5915 17.8287 21.6449 18.9781 21.6449H19.0457C20.1952 21.6449 21.1418 22.5915 21.1418 23.7409C21.1418 23.7409 21.1418 23.7409 21.1418 23.8085ZM23.3054 29.2176C23.3054 29.7585 22.8321 30.2318 22.2236 30.2318C21.6827 30.2318 21.1418 29.7585 21.1418 29.15C21.1418 28.6091 21.6827 28.1358 22.2236 28.1358C22.8321 28.1358 23.3054 28.6091 23.3054 29.2176Z" fill="white"/>
</g>
<defs>
<filter id="filter0_d_148_350" x="0.872152" y="0.765937" width="47.0979" height="47.1673" filterUnits="userSpaceOnUse" color-interpolation-filters="sRGB">
<feFlood flood-opacity="0" result="BackgroundImageFix"/>
<feColorMatrix in="SourceAlpha" type="matrix" values="0 0 0 0 0 0 0 0 0 0 0 0 0 0 0 0 0 0 127 0" result="hardAlpha"/>
<feOffset dx="-1.08182" dy="2.70455"/>
<feGaussianBlur stdDeviation="3.13727"/>
<feComposite in2="hardAlpha" operator="out"/>
<feColorMatrix type="matrix" values="0 0 0 0 0.817255 0 0 0 0 0.101961 0 0 0 0 0.996078 0 0 0 1 0"/>
<feBlend mode="normal" in2="BackgroundImageFix" result="effect1_dropShadow_148_350"/>
<feBlend mode="normal" in="SourceGraphic" in2="effect1_dropShadow_148_350" result="shape"/>
</filter>
</defs>
</svg>
